<mxfile host="app.diagrams.net" agent="Mozilla/5.0 (Macintosh; Intel Mac OS X 10_15_7) AppleWebKit/537.36 (KHTML, like Gecko) Chrome/134.0.0.0 Safari/537.36" version="26.1.0">
  <diagram name="Version-1" id="Y2WjuvX7hO9Vn0jHDt_I">
    <mxGraphModel dx="2162" dy="1196" grid="0" gridSize="10" guides="1" tooltips="1" connect="1" arrows="1" fold="1" page="1" pageScale="1" pageWidth="1400" pageHeight="850" math="0" shadow="0">
      <root>
        <mxCell id="0" />
        <mxCell id="1" parent="0" />
        <mxCell id="DaBoR0gVyzuO1eZjZUi0-1" style="edgeStyle=orthogonalEdgeStyle;rounded=0;orthogonalLoop=1;jettySize=auto;html=1;exitX=0.5;exitY=1;exitDx=0;exitDy=0;entryX=0.5;entryY=0;entryDx=0;entryDy=0;strokeColor=#FF0000;strokeWidth=2;" parent="1" target="DaBoR0gVyzuO1eZjZUi0-31" edge="1">
          <mxGeometry relative="1" as="geometry">
            <mxPoint x="845" y="297" as="sourcePoint" />
          </mxGeometry>
        </mxCell>
        <mxCell id="DaBoR0gVyzuO1eZjZUi0-5" style="edgeStyle=orthogonalEdgeStyle;rounded=0;orthogonalLoop=1;jettySize=auto;html=1;entryX=0.5;entryY=0;entryDx=0;entryDy=0;strokeColor=#D70C70;strokeWidth=2;" parent="1" target="DaBoR0gVyzuO1eZjZUi0-38" edge="1">
          <mxGeometry relative="1" as="geometry">
            <mxPoint x="1342.5" y="301.25" as="sourcePoint" />
          </mxGeometry>
        </mxCell>
        <mxCell id="DaBoR0gVyzuO1eZjZUi0-22" value="" style="rounded=1;whiteSpace=wrap;html=1;fillColor=none;strokeWidth=2;strokeColor=#999999;dashed=1;" parent="1" vertex="1">
          <mxGeometry x="217" y="532" width="939" height="214.5" as="geometry" />
        </mxCell>
        <mxCell id="DaBoR0gVyzuO1eZjZUi0-28" style="edgeStyle=orthogonalEdgeStyle;rounded=0;orthogonalLoop=1;jettySize=auto;html=1;entryX=0.5;entryY=1;entryDx=0;entryDy=0;strokeColor=#D70C70;strokeWidth=2;" parent="1" target="DaBoR0gVyzuO1eZjZUi0-27" edge="1">
          <mxGeometry relative="1" as="geometry">
            <mxPoint x="1615.5" y="358.25" as="sourcePoint" />
          </mxGeometry>
        </mxCell>
        <mxCell id="DaBoR0gVyzuO1eZjZUi0-33" style="edgeStyle=orthogonalEdgeStyle;rounded=0;orthogonalLoop=1;jettySize=auto;html=1;entryX=0.5;entryY=1;entryDx=0;entryDy=0;strokeColor=#D70C70;strokeWidth=2;endArrow=block;endFill=0;dashed=1;" parent="1" target="DaBoR0gVyzuO1eZjZUi0-29" edge="1">
          <mxGeometry relative="1" as="geometry">
            <mxPoint x="1615.5" y="457.75" as="sourcePoint" />
          </mxGeometry>
        </mxCell>
        <mxCell id="DaBoR0gVyzuO1eZjZUi0-34" style="edgeStyle=orthogonalEdgeStyle;rounded=0;orthogonalLoop=1;jettySize=auto;html=1;exitX=0.5;exitY=1;exitDx=0;exitDy=0;entryX=0.5;entryY=0;entryDx=0;entryDy=0;strokeColor=#D70C70;strokeWidth=2;endArrow=block;endFill=0;dashed=1;" parent="1" source="DaBoR0gVyzuO1eZjZUi0-36" edge="1">
          <mxGeometry relative="1" as="geometry">
            <mxPoint x="1615.5" y="558.75" as="targetPoint" />
          </mxGeometry>
        </mxCell>
        <mxCell id="6RvmhYnLVAip91xQ1J4D-6" style="edgeStyle=orthogonalEdgeStyle;rounded=0;orthogonalLoop=1;jettySize=auto;html=1;entryX=0.5;entryY=0;entryDx=0;entryDy=0;strokeWidth=2;strokeColor=#FE9039;" edge="1" parent="1" source="502LVH5s2Y_56XpgMkL3-4" target="6RvmhYnLVAip91xQ1J4D-5">
          <mxGeometry relative="1" as="geometry" />
        </mxCell>
        <mxCell id="6RvmhYnLVAip91xQ1J4D-9" style="edgeStyle=orthogonalEdgeStyle;rounded=0;orthogonalLoop=1;jettySize=auto;html=1;entryX=0.5;entryY=1;entryDx=0;entryDy=0;strokeWidth=2;strokeColor=#FE9039;dashed=1;" edge="1" parent="1" source="502LVH5s2Y_56XpgMkL3-4" target="6RvmhYnLVAip91xQ1J4D-3">
          <mxGeometry relative="1" as="geometry" />
        </mxCell>
        <mxCell id="6RvmhYnLVAip91xQ1J4D-10" style="edgeStyle=orthogonalEdgeStyle;rounded=0;orthogonalLoop=1;jettySize=auto;html=1;entryX=0.5;entryY=1;entryDx=0;entryDy=0;strokeWidth=2;strokeColor=#FE9039;dashed=1;" edge="1" parent="1" source="502LVH5s2Y_56XpgMkL3-4" target="6RvmhYnLVAip91xQ1J4D-4">
          <mxGeometry relative="1" as="geometry" />
        </mxCell>
        <mxCell id="502LVH5s2Y_56XpgMkL3-4" value="SceneDelegate" style="rounded=0;whiteSpace=wrap;html=1;fillColor=none;strokeColor=#FE9039;strokeWidth=2;fontColor=#FE9039;fontSize=16;" parent="1" vertex="1">
          <mxGeometry x="599" y="672" width="175" height="39" as="geometry" />
        </mxCell>
        <mxCell id="6RvmhYnLVAip91xQ1J4D-50" style="edgeStyle=orthogonalEdgeStyle;rounded=0;orthogonalLoop=1;jettySize=auto;html=1;entryX=0.5;entryY=1;entryDx=0;entryDy=0;strokeWidth=2;dashed=1;strokeColor=#FE9039;" edge="1" parent="1" source="6RvmhYnLVAip91xQ1J4D-3" target="6RvmhYnLVAip91xQ1J4D-8">
          <mxGeometry relative="1" as="geometry" />
        </mxCell>
        <mxCell id="6RvmhYnLVAip91xQ1J4D-51" style="edgeStyle=orthogonalEdgeStyle;rounded=0;orthogonalLoop=1;jettySize=auto;html=1;entryX=0.5;entryY=1;entryDx=0;entryDy=0;strokeWidth=2;dashed=1;endArrow=block;endFill=0;strokeColor=#FE9039;" edge="1" parent="1" source="6RvmhYnLVAip91xQ1J4D-3" target="6RvmhYnLVAip91xQ1J4D-23">
          <mxGeometry relative="1" as="geometry" />
        </mxCell>
        <mxCell id="6RvmhYnLVAip91xQ1J4D-3" value="FeedUIComposer" style="rounded=0;whiteSpace=wrap;html=1;fillColor=none;strokeColor=#FE9039;strokeWidth=2;fontColor=#FE9039;fontSize=16;" vertex="1" parent="1">
          <mxGeometry x="364" y="571" width="175" height="39" as="geometry" />
        </mxCell>
        <mxCell id="6RvmhYnLVAip91xQ1J4D-49" style="edgeStyle=orthogonalEdgeStyle;rounded=0;orthogonalLoop=1;jettySize=auto;html=1;entryX=0.5;entryY=1;entryDx=0;entryDy=0;strokeWidth=2;dashed=1;strokeColor=#FE9039;" edge="1" parent="1" source="6RvmhYnLVAip91xQ1J4D-4" target="6RvmhYnLVAip91xQ1J4D-31">
          <mxGeometry relative="1" as="geometry" />
        </mxCell>
        <mxCell id="6RvmhYnLVAip91xQ1J4D-4" value="CommmentsUIComposer" style="rounded=0;whiteSpace=wrap;html=1;fillColor=none;strokeColor=#FE9039;strokeWidth=2;fontColor=#FE9039;fontSize=16;" vertex="1" parent="1">
          <mxGeometry x="853.5" y="571" width="225" height="39" as="geometry" />
        </mxCell>
        <mxCell id="6RvmhYnLVAip91xQ1J4D-5" value="&lt;font style=&quot;font-size: 16px;&quot;&gt;UINavigationController&lt;/font&gt;" style="rounded=0;whiteSpace=wrap;html=1;fillColor=none;strokeColor=#00F573;strokeWidth=2;fontColor=#00F573;fontSize=16;" vertex="1" parent="1">
          <mxGeometry x="586.5" y="785" width="200" height="39" as="geometry" />
        </mxCell>
        <mxCell id="6RvmhYnLVAip91xQ1J4D-8" value="" style="rounded=1;whiteSpace=wrap;html=1;fillColor=none;strokeWidth=2;strokeColor=#999999;dashed=1;" vertex="1" parent="1">
          <mxGeometry x="217" y="49" width="469" height="434" as="geometry" />
        </mxCell>
        <mxCell id="6RvmhYnLVAip91xQ1J4D-19" style="edgeStyle=orthogonalEdgeStyle;rounded=0;orthogonalLoop=1;jettySize=auto;html=1;entryX=0;entryY=0.5;entryDx=0;entryDy=0;strokeColor=#1EA3FC;strokeWidth=2;" edge="1" parent="1" source="6RvmhYnLVAip91xQ1J4D-11" target="6RvmhYnLVAip91xQ1J4D-14">
          <mxGeometry relative="1" as="geometry" />
        </mxCell>
        <mxCell id="6RvmhYnLVAip91xQ1J4D-11" value="&lt;font style=&quot;font-size: 16px;&quot;&gt;Feed API&lt;/font&gt;" style="rounded=0;whiteSpace=wrap;html=1;fillColor=none;strokeColor=#1EA3FC;strokeWidth=2;fontColor=#1EA3FC;fontSize=16;" vertex="1" parent="1">
          <mxGeometry x="287" y="96" width="141" height="39" as="geometry" />
        </mxCell>
        <mxCell id="6RvmhYnLVAip91xQ1J4D-18" style="edgeStyle=orthogonalEdgeStyle;rounded=0;orthogonalLoop=1;jettySize=auto;html=1;entryX=1;entryY=0.5;entryDx=0;entryDy=0;strokeWidth=2;strokeColor=#D70C70;" edge="1" parent="1" source="6RvmhYnLVAip91xQ1J4D-13" target="6RvmhYnLVAip91xQ1J4D-14">
          <mxGeometry relative="1" as="geometry" />
        </mxCell>
        <mxCell id="6RvmhYnLVAip91xQ1J4D-13" value="&lt;font style=&quot;font-size: 16px;&quot;&gt;Feed Cache&lt;/font&gt;" style="rounded=0;whiteSpace=wrap;html=1;fillColor=none;strokeColor=#D70C70;strokeWidth=2;fontColor=#D70C70;fontSize=16;" vertex="1" parent="1">
          <mxGeometry x="494" y="96" width="141" height="39" as="geometry" />
        </mxCell>
        <mxCell id="6RvmhYnLVAip91xQ1J4D-14" value="&lt;font style=&quot;font-size: 16px;&quot;&gt;FeedImage&lt;/font&gt;" style="rounded=0;whiteSpace=wrap;html=1;fillColor=none;strokeColor=#FF0000;strokeWidth=2;fontColor=#FF0000;fontSize=16;" vertex="1" parent="1">
          <mxGeometry x="392" y="173.5" width="141" height="39" as="geometry" />
        </mxCell>
        <mxCell id="6RvmhYnLVAip91xQ1J4D-20" style="edgeStyle=orthogonalEdgeStyle;rounded=0;orthogonalLoop=1;jettySize=auto;html=1;entryX=0.5;entryY=1;entryDx=0;entryDy=0;strokeColor=#67AB9F;strokeWidth=2;" edge="1" parent="1" source="6RvmhYnLVAip91xQ1J4D-15" target="6RvmhYnLVAip91xQ1J4D-14">
          <mxGeometry relative="1" as="geometry" />
        </mxCell>
        <mxCell id="6RvmhYnLVAip91xQ1J4D-15" value="&lt;font style=&quot;font-size: 16px;&quot;&gt;Feed Presentation&lt;/font&gt;" style="rounded=0;whiteSpace=wrap;html=1;fillColor=none;strokeColor=#67AB9F;strokeWidth=2;fontColor=#67AB9F;fontSize=16;" vertex="1" parent="1">
          <mxGeometry x="375" y="250" width="175" height="39" as="geometry" />
        </mxCell>
        <mxCell id="6RvmhYnLVAip91xQ1J4D-21" style="edgeStyle=orthogonalEdgeStyle;rounded=0;orthogonalLoop=1;jettySize=auto;html=1;entryX=0.5;entryY=1;entryDx=0;entryDy=0;strokeColor=#CE9BFF;strokeWidth=2;" edge="1" parent="1" source="6RvmhYnLVAip91xQ1J4D-16" target="6RvmhYnLVAip91xQ1J4D-15">
          <mxGeometry relative="1" as="geometry" />
        </mxCell>
        <mxCell id="6RvmhYnLVAip91xQ1J4D-22" style="edgeStyle=orthogonalEdgeStyle;rounded=0;orthogonalLoop=1;jettySize=auto;html=1;entryX=0.5;entryY=0;entryDx=0;entryDy=0;fontColor=#CE9BFF;strokeWidth=2;strokeColor=#CE9BFF;endArrow=block;endFill=0;" edge="1" parent="1" source="6RvmhYnLVAip91xQ1J4D-16" target="6RvmhYnLVAip91xQ1J4D-17">
          <mxGeometry relative="1" as="geometry" />
        </mxCell>
        <mxCell id="6RvmhYnLVAip91xQ1J4D-24" style="edgeStyle=orthogonalEdgeStyle;rounded=0;orthogonalLoop=1;jettySize=auto;html=1;entryX=1;entryY=0.5;entryDx=0;entryDy=0;strokeColor=#CE9BFF;fontColor=#CE9BFF;strokeWidth=2;dashed=1;" edge="1" parent="1" source="6RvmhYnLVAip91xQ1J4D-16" target="6RvmhYnLVAip91xQ1J4D-23">
          <mxGeometry relative="1" as="geometry" />
        </mxCell>
        <mxCell id="6RvmhYnLVAip91xQ1J4D-16" value="&lt;font style=&quot;font-size: 16px;&quot;&gt;Feed UI&lt;/font&gt;" style="rounded=0;whiteSpace=wrap;html=1;fillColor=none;strokeColor=#CE9BFF;strokeWidth=2;fontColor=#CE9BFF;fontSize=16;" vertex="1" parent="1">
          <mxGeometry x="375" y="331" width="175" height="39" as="geometry" />
        </mxCell>
        <mxCell id="6RvmhYnLVAip91xQ1J4D-17" value="&lt;font style=&quot;font-size: 16px;&quot;&gt;UIKit&lt;/font&gt;" style="rounded=0;whiteSpace=wrap;html=1;fillColor=none;strokeColor=#00F573;strokeWidth=2;fontColor=#00F573;fontSize=16;" vertex="1" parent="1">
          <mxGeometry x="375" y="410" width="175" height="39" as="geometry" />
        </mxCell>
        <mxCell id="6RvmhYnLVAip91xQ1J4D-23" value="&lt;font style=&quot;font-size: 16px;&quot;&gt;&amp;lt; &amp;gt;&lt;/font&gt;" style="rounded=0;whiteSpace=wrap;html=1;fillColor=none;strokeColor=#CE9BFF;strokeWidth=2;fontColor=#CE9BFF;fontSize=16;" vertex="1" parent="1">
          <mxGeometry x="259" y="331" width="70" height="39" as="geometry" />
        </mxCell>
        <mxCell id="6RvmhYnLVAip91xQ1J4D-25" value="selection" style="text;html=1;strokeColor=#CE9BFF;fillColor=none;align=center;verticalAlign=middle;whiteSpace=wrap;rounded=0;strokeWidth=0;fontColor=#CE9BFF;fontStyle=0;fontSize=12;" vertex="1" parent="1">
          <mxGeometry x="278" y="311" width="80" height="20" as="geometry" />
        </mxCell>
        <mxCell id="6RvmhYnLVAip91xQ1J4D-30" value="Feed Scene" style="text;html=1;strokeColor=none;fillColor=none;align=center;verticalAlign=middle;whiteSpace=wrap;rounded=0;strokeWidth=0;fontColor=#999999;fontStyle=0;fontSize=20;" vertex="1" parent="1">
          <mxGeometry x="385" y="9" width="127" height="30" as="geometry" />
        </mxCell>
        <mxCell id="6RvmhYnLVAip91xQ1J4D-31" value="" style="rounded=1;whiteSpace=wrap;html=1;fillColor=none;strokeWidth=2;strokeColor=#999999;dashed=1;" vertex="1" parent="1">
          <mxGeometry x="776" y="51" width="380" height="434" as="geometry" />
        </mxCell>
        <mxCell id="6RvmhYnLVAip91xQ1J4D-47" style="edgeStyle=orthogonalEdgeStyle;rounded=0;orthogonalLoop=1;jettySize=auto;html=1;entryX=0.5;entryY=0;entryDx=0;entryDy=0;strokeWidth=2;strokeColor=#1EA3FC;" edge="1" parent="1" source="6RvmhYnLVAip91xQ1J4D-33" target="6RvmhYnLVAip91xQ1J4D-36">
          <mxGeometry relative="1" as="geometry" />
        </mxCell>
        <mxCell id="6RvmhYnLVAip91xQ1J4D-33" value="&lt;font style=&quot;font-size: 16px;&quot;&gt;Comments API&lt;/font&gt;" style="rounded=0;whiteSpace=wrap;html=1;fillColor=none;strokeColor=#1EA3FC;strokeWidth=2;fontColor=#1EA3FC;fontSize=16;" vertex="1" parent="1">
          <mxGeometry x="895.5" y="93" width="141" height="39" as="geometry" />
        </mxCell>
        <mxCell id="6RvmhYnLVAip91xQ1J4D-36" value="&lt;font style=&quot;font-size: 16px;&quot;&gt;ImageComment&lt;/font&gt;" style="rounded=0;whiteSpace=wrap;html=1;fillColor=none;strokeColor=#FF0000;strokeWidth=2;fontColor=#FF0000;fontSize=16;" vertex="1" parent="1">
          <mxGeometry x="895.5" y="175.5" width="141" height="39" as="geometry" />
        </mxCell>
        <mxCell id="6RvmhYnLVAip91xQ1J4D-37" style="edgeStyle=orthogonalEdgeStyle;rounded=0;orthogonalLoop=1;jettySize=auto;html=1;entryX=0.5;entryY=1;entryDx=0;entryDy=0;strokeColor=#67AB9F;strokeWidth=2;" edge="1" source="6RvmhYnLVAip91xQ1J4D-38" target="6RvmhYnLVAip91xQ1J4D-36" parent="1">
          <mxGeometry relative="1" as="geometry" />
        </mxCell>
        <mxCell id="6RvmhYnLVAip91xQ1J4D-38" value="&lt;font style=&quot;font-size: 16px;&quot;&gt;Comments Presentation&lt;/font&gt;" style="rounded=0;whiteSpace=wrap;html=1;fillColor=none;strokeColor=#67AB9F;strokeWidth=2;fontColor=#67AB9F;fontSize=16;" vertex="1" parent="1">
          <mxGeometry x="866" y="250" width="200" height="39" as="geometry" />
        </mxCell>
        <mxCell id="6RvmhYnLVAip91xQ1J4D-39" style="edgeStyle=orthogonalEdgeStyle;rounded=0;orthogonalLoop=1;jettySize=auto;html=1;entryX=0.5;entryY=1;entryDx=0;entryDy=0;strokeColor=#CE9BFF;strokeWidth=2;" edge="1" source="6RvmhYnLVAip91xQ1J4D-42" target="6RvmhYnLVAip91xQ1J4D-38" parent="1">
          <mxGeometry relative="1" as="geometry" />
        </mxCell>
        <mxCell id="6RvmhYnLVAip91xQ1J4D-40" style="edgeStyle=orthogonalEdgeStyle;rounded=0;orthogonalLoop=1;jettySize=auto;html=1;entryX=0.5;entryY=0;entryDx=0;entryDy=0;fontColor=#CE9BFF;strokeWidth=2;strokeColor=#CE9BFF;endArrow=block;endFill=0;" edge="1" source="6RvmhYnLVAip91xQ1J4D-42" target="6RvmhYnLVAip91xQ1J4D-43" parent="1">
          <mxGeometry relative="1" as="geometry" />
        </mxCell>
        <mxCell id="6RvmhYnLVAip91xQ1J4D-42" value="&lt;font style=&quot;font-size: 16px;&quot;&gt;Comments UI&lt;/font&gt;" style="rounded=0;whiteSpace=wrap;html=1;fillColor=none;strokeColor=#CE9BFF;strokeWidth=2;fontColor=#CE9BFF;fontSize=16;" vertex="1" parent="1">
          <mxGeometry x="878.5" y="333" width="175" height="39" as="geometry" />
        </mxCell>
        <mxCell id="6RvmhYnLVAip91xQ1J4D-43" value="&lt;font style=&quot;font-size: 16px;&quot;&gt;UIKit&lt;/font&gt;" style="rounded=0;whiteSpace=wrap;html=1;fillColor=none;strokeColor=#00F573;strokeWidth=2;fontColor=#00F573;fontSize=16;" vertex="1" parent="1">
          <mxGeometry x="878.5" y="412" width="175" height="39" as="geometry" />
        </mxCell>
        <mxCell id="6RvmhYnLVAip91xQ1J4D-46" value="Comments Scene" style="text;html=1;strokeColor=none;fillColor=none;align=center;verticalAlign=middle;whiteSpace=wrap;rounded=0;strokeWidth=0;fontColor=#999999;fontStyle=0;fontSize=20;" vertex="1" parent="1">
          <mxGeometry x="878" y="11" width="176" height="30" as="geometry" />
        </mxCell>
        <mxCell id="6RvmhYnLVAip91xQ1J4D-48" value="" style="endArrow=none;dashed=1;html=1;rounded=0;strokeColor=#999999;" edge="1" parent="1">
          <mxGeometry width="50" height="50" relative="1" as="geometry">
            <mxPoint x="733" y="499" as="sourcePoint" />
            <mxPoint x="733" y="13" as="targetPoint" />
          </mxGeometry>
        </mxCell>
        <mxCell id="6RvmhYnLVAip91xQ1J4D-52" value="Composition Root" style="text;html=1;strokeColor=none;fillColor=none;align=center;verticalAlign=middle;whiteSpace=wrap;rounded=0;strokeWidth=0;fontColor=#999999;fontStyle=0;fontSize=20;" vertex="1" parent="1">
          <mxGeometry x="222" y="700" width="176" height="30" as="geometry" />
        </mxCell>
      </root>
    </mxGraphModel>
  </diagram>
</mxfile>
